<svg width="7" height="10" viewBox="0 0 7 10" fill="none" xmlns="http://www.w3.org/2000/svg">
<path d="M0.399602 10C0.306268 10 0.226935 9.972 0.161602 9.916C0.105602 9.85067 0.0776016 9.77133 0.0776016 9.678V9.23C0.0776016 9.01533 0.194268 8.81 0.427602 8.614L3.3956 5.646C4.11427 5.04867 4.60894 4.56333 4.8796 4.19C5.15027 3.80733 5.2856 3.406 5.2856 2.986C5.2856 2.44467 5.1316 2.02 4.8236 1.712C4.52494 1.404 4.08627 1.25 3.5076 1.25C2.96627 1.25 2.53227 1.41333 2.2056 1.74C1.87893 2.05733 1.67827 2.482 1.6036 3.014C1.58493 3.126 1.53827 3.21 1.4636 3.266C1.39827 3.31267 1.3236 3.336 1.2396 3.336H0.511602C0.427602 3.336 0.357602 3.31267 0.301602 3.266C0.245602 3.21 0.217602 3.14467 0.217602 3.07C0.236268 2.566 0.371602 2.08533 0.623602 1.628C0.875602 1.16133 1.24427 0.783333 1.7296 0.494C2.22427 0.195333 2.81694 0.0459996 3.5076 0.0459996C4.56227 0.0459996 5.3556 0.321333 5.8876 0.872C6.42894 1.41333 6.6996 2.104 6.6996 2.944C6.6996 3.532 6.55027 4.064 6.2516 4.54C5.96227 5.00667 5.5096 5.51067 4.8936 6.052L2.2056 8.782H6.5736C6.67627 8.782 6.7556 8.81467 6.8116 8.88C6.87694 8.936 6.9096 9.01067 6.9096 9.104V9.678C6.9096 9.77133 6.87694 9.85067 6.8116 9.916C6.74627 9.972 6.66693 10 6.5736 10H0.399602Z" fill="black"/>
</svg>
